# xmcd
# 
# Track frame offsets:
#     150
#     15694
#     39876
#     60556
#     84678
#     101258
#     118948
#     138504
#     158560
#     180515
#     199751
#     217251
#     232024
#     248587
#     267900
#     282684
# 
# Disc length: 4023
# 
# Revision: 1
# Processed by: cddbd v1.5.2PL0 Copyright (c) Steve Scherf et al.
# Submitted via: BonkEnc v1.0.8
# 
DISCID=e30fb510
DTITLE=Clifford Brown - Joy Spring
DYEAR=0
DGENRE=Jazz
TTITLE0=Choose now
TTITLE1=Theme of no report
TTITLE2=Dial "B" for beauty
TTITLE3=Falling in love with you
TTITLE4=Cpri
TTITLE5=Lover man
TTITLE6=Turnpike
TTITLE7=Sketch one
TTITLE8=Get happy
TTITLE9=Daahoud
TTITLE10=Finders keepers
TTITLE11=Joy spring
TTITLE12=Gone with the wind
TTITLE13=Bones for Jones
TTITLE14=Blueberry hill
TTITLE15=Tiny capers
EXTD=
EXTT0=
EXTT1=
EXTT2=
EXTT3=
EXTT4=
EXTT5=
EXTT6=
EXTT7=
EXTT8=
EXTT9=
EXTT10=
EXTT11=
EXTT12=
EXTT13=
EXTT14=
EXTT15=
PLAYORDER=
